<?xml version="1.0" encoding="UTF-8"?>
<svg id="Vrstva_2" data-name="Vrstva 2" xmlns="http://www.w3.org/2000/svg" viewBox="0 0 373.24 367.55">
  <defs>
    <style>
      .cls-1 {
        fill: #fff;
      }
    </style>
  </defs>
  <g id="Vrstva_1-2" data-name="Vrstva 1">
    <g>
      <path class="cls-1" d="M.07,136.55c0-42.64,0-85.29,0-127.93C.08,.86,.94,0,8.59,0,60.48,0,112.36,0,164.24,0c7.14,0,8.07,.88,8.08,8.01,.02,51.8,.02,103.61,0,155.41,0,7.23-.86,8.08-8,8.08-33.09,.01-66.18,0-99.28,.01-6.89,0-7.75,.86-7.75,7.75-.01,28.98,0,57.97-.01,86.95,0,7.39-.67,8.04-7.95,8.05-13.64,.01-27.27,0-40.91,0-7.45,0-8.34-.87-8.34-8.28-.01-43.14,0-86.28,0-129.43Zm85.75-22.3c6.65,0,13.3,.1,19.95-.03,6.12-.11,9.14-2.76,9.23-8.7,.2-13.15,.2-26.32,0-39.47-.09-5.91-3.25-8.78-9.17-8.82-13.14-.09-26.27-.09-39.41,0-5.77,.04-9,3.11-9.08,8.99-.18,12.99-.17,25.98,0,38.97,.08,5.96,3.11,8.86,9.02,9,6.48,.15,12.97,.03,19.45,.05Z"/>
      <path class="cls-1" d="M373.24,137.29c0,42.66,0,85.31,0,127.97,0,8.39-.64,9-9.13,9-13.47,0-26.95,.01-40.42,0-6.92,0-7.64-.73-7.64-7.85-.02-28.83,0-57.65,0-86.48,0-7.8-.63-8.41-8.59-8.42-32.77,0-65.54,0-98.31,0-7.26,0-8.11-.81-8.13-7.95-.03-14-.05-27.99,.01-41.99,.03-6.11,1.24-7.27,7.38-7.28,33.1-.02,66.21,0,99.31-.02,8.02,0,8.32-.33,8.33-8.56,0-13.83,.02-27.66,0-41.49-.01-6-1.02-7-6.92-7-33.27-.01-66.54,0-99.81,0-7.41,0-8.28-.86-8.3-8.33-.03-13.66-.03-27.33,0-40.99,.02-6.89,1.01-7.88,7.71-7.88,52.23,0,104.47,0,156.7,0,6.7,0,7.82,1.09,7.82,7.82,.02,43.16,0,86.31,0,129.47Z"/>
      <path class="cls-1" d="M85.72,342.38c3.78,8.01,7.42,15.73,11.07,23.47-8.75,3.39-13.03,1.8-16.42-5.52-1.81-3.92-4.02-7.7-5.38-11.77-1.76-5.26-5.05-5.83-10-4.22,0,5.96-.15,11.92,.06,17.86,.13,3.53-.83,5.09-4.7,5.06-8.21-.05-8.21,.14-8.21-8.07,0-16.8,.11-33.61-.07-50.41-.05-4.25,1.14-6.01,5.64-5.8,6.79,.33,13.62-.03,20.42,.13,10.15,.23,15.68,5.51,16.42,15.58,.22,2.98,.15,5.99,.04,8.98-.23,6.38-2.52,11.65-8.86,14.7Zm-20.51-9.01c5.65-1.21,12.48,2.79,15.47-2.97,1.94-3.73,1.69-10.69-.65-14.04-3.18-4.54-9.64-1.62-15.04-1.94,0,5.34-.01,9.97,0,14.6,0,1.13,.11,2.27,.21,4.35Z"/>
      <path class="cls-1" d="M328.21,335.1c0-5.65-.14-11.31,.03-16.96,.26-8.4,4.52-13.69,12.72-14.62,6.05-.69,12.3-.65,18.36,.02,7.48,.83,12.01,5.2,12.35,12.75,.58,12.6,.61,25.26-.03,37.86-.4,7.96-5.85,12.43-13.89,12.92-4.96,.3-9.97,.28-14.94,.03-9.02-.45-14.29-5.92-14.58-15.03-.18-5.65-.03-11.31-.03-16.96Zm31.05,0c0-3.32,0-6.65,0-9.97,0-10.85-.21-11.05-11.22-10.87-.17,0-.33,.01-.5,0-4.65-.34-6.69,1.9-6.66,6.48,.06,7.81,0,15.62,0,23.42,0,12.08,.25,12.23,12.23,11.87,4.47-.13,6.26-2.17,6.16-6.48-.11-4.82-.03-9.64-.02-14.45Z"/>
      <path class="cls-1" d="M104.44,335.12c0-5.98-.26-11.98,.07-17.95,.43-7.71,4.5-12.68,12.11-13.5,6.68-.72,13.6-.59,20.28,.27,6.65,.86,10.76,5.62,10.95,12.31,.36,12.62,.42,25.27-.02,37.88-.27,7.61-5.86,12.45-13.9,12.93-5.13,.31-10.3,.32-15.43,0-8.54-.55-13.63-5.79-14.06-14.48-.29-5.8-.05-11.63-.05-17.45,.02,0,.04,0,.06,0Zm12.57-.57h-.02c0,3.32,0,6.65,0,9.97,0,11.55,.18,11.73,11.61,11.48,5.42-.12,6.79-1.37,6.85-6.77,.09-7.64,.03-15.28,.03-22.93,0-12.05-.78-12.73-12.63-12.06-3.9,.22-5.8,2.03-5.83,5.86-.03,4.82,0,9.64,0,14.45Z"/>
      <path class="cls-1" d="M287.49,331.88c5.18-7.65,10.25-13.76,13.75-20.67,4.29-8.48,10.82-9.14,19.53-7.59-.88,1.59-1.49,2.99-2.35,4.21-4.92,6.91-9.79,13.86-14.91,20.61-1.8,2.37-1.81,4.06-.17,6.54,5.7,8.59,11.15,17.34,16.67,26.05,.96,1.51,1.82,3.08,2.74,4.64-6.58,3.39-12.53,1.96-16.01-3.58-4.31-6.87-8.6-13.75-13.03-20.83-4.32,3.57-7.18,7.24-6.28,12.91,.36,2.27-.17,4.68,.11,6.98,.59,4.92-1.5,6.37-6.24,6.13-6.76-.34-6.78-.07-6.78-7,0-17.15,.2-34.3-.12-51.44-.1-5.38,2.33-5.85,6.62-5.87,4.33-.01,6.9,.56,6.58,5.9-.43,7.25-.11,14.54-.11,23.01Z"/>
      <path class="cls-1" d="M13.05,345.2c0,6.21-.17,11.67,.06,17.13,.15,3.68-1.15,4.95-4.86,4.92-8.17-.06-8.18,.12-8.18-8.14,0-16.8,.11-33.6-.07-50.39-.05-4.33,1.34-5.92,5.74-5.73,6.96,.3,13.95-.03,20.92,.13,10.6,.24,16.14,5.93,16.31,16.57,.06,3.49,.13,6.99-.04,10.48-.44,9.21-6.01,14.71-15.23,15.02-4.62,.15-9.25,.03-14.64,.03Zm.22-10.14c5.86-1.17,13-.55,15.52-3.68,2.52-3.12,2.39-11.69-.22-14.73-2.63-3.05-9.74-2.22-15.29-3.16v21.57Z"/>
      <path class="cls-1" d="M171.74,314.26v17.51c5.27,0,10.36,.19,15.43-.06,4.1-.2,4.63,1.98,4.52,5.27-.11,3.09,.32,6.19-4.35,6.04-4.96-.16-9.93-.04-15.82-.04,0,6.22,.14,12.13-.08,18.03-.07,1.98-.77,5.46-1.62,5.61-3.32,.57-6.84,.2-10.24-.2-.47-.06-.95-2.3-.96-3.54-.06-18.47,0-36.94-.09-55.41-.02-3.2,1.08-4.49,4.32-4.45,9.13,.12,18.27,.18,27.41-.01,4.77-.1,4.2,3.01,4.31,6.03,.12,3.22-.31,5.48-4.49,5.29-5.93-.27-11.88-.07-18.33-.07Z"/>
      <path class="cls-1" d="M251.88,314.26c0,10.56,0,20.35,0,30.13,0,6.16-.11,12.32,.04,18.47,.08,3.23-1.15,4.65-4.38,4.32-.99-.1-2.01-.12-2.99,0-4.09,.54-5.53-1.11-5.46-5.3,.21-13.81,.09-27.62,.06-41.44,0-1.95-.19-3.9-.32-6.2-3.76,0-7.07-.14-10.36,.03-4.15,.21-3.97-2.54-3.9-5.3,.07-2.75-.7-5.96,3.84-5.94,11.46,.06,22.93,.05,34.39,0,4.57-.02,3.66,3.28,3.77,5.99,.11,2.81,.15,5.47-3.96,5.24-3.29-.19-6.6-.04-10.71-.04Z"/>
      <path class="cls-1" d="M203.47,335.11c0-9.14,.2-18.28-.08-27.41-.14-4.49,2.24-4.93,5.59-4.62,3.13,.29,7.36-1.56,7.31,4.44-.13,18.44-.1,36.88,0,55.32,.02,3.63-1.64,4.4-4.89,4.39-7.92-.02-7.93,.11-7.93-7.71,0-8.14,0-16.28,0-24.42Z"/>
    </g>
  </g>
</svg>