<?xml version="1.0" encoding="UTF-8"?>
<svg id="Vrstva_2" data-name="Vrstva 2" xmlns="http://www.w3.org/2000/svg" viewBox="0 0 341.63 289.04">
  <defs>
    <style>
      .cls-1 {
        fill: #fff;
      }
    </style>
  </defs>
  <g id="Vrstva_1-2" data-name="Vrstva 1">
    <g>
      <path class="cls-1" d="M0,98.15c1.04-5.98,1.81-12.02,3.19-17.91,3.48-14.89,10.22-28.29,19.64-40.29,12.55-15.97,28.64-26.93,47.67-33.91C86.21,.29,102.46-.41,118.86,.17c7.3,.26,12.4,5.92,12.5,13.27,.12,8.54,.1,17.09,0,25.64-.09,7.7-5.48,13.14-13.23,13.39-5.72,.18-11.47-.05-17.17,.32-16.05,1.06-28.54,8.69-38.22,21.29-9.38,12.21-11.45,26.23-9.8,41.02,1.03,9.24,9.53,16.24,19.56,16.32,14.82,.11,29.64,.14,44.45,0,15.29-.13,26.92,6.29,35.13,19.06,3.58,5.57,5.37,11.81,5.41,18.33,.15,27.46,.33,54.92,0,82.37-.22,18.21-13.33,33.37-31.17,37.02-3.09,.63-6.32,.78-9.48,.79-25.36,.06-50.72,0-76.09,.05-16.67,.04-28.93-7.36-36.67-21.96-2-3.77-2.75-8.21-4.07-12.34V98.15Z"/>
      <path class="cls-1" d="M183.89,177.35c0-22,.03-44.01-.01-66.01-.02-12.13,.8-24.15,4.37-35.83,3.58-11.73,8.93-22.58,16.12-32.52,8.93-12.34,20.17-22.11,33.42-29.5,11.44-6.38,23.65-10.9,36.7-12.27,9.1-.95,18.31-1.11,27.48-1.08,7.89,.02,13.04,5.43,13.2,13.34,.18,8.54,.18,17.1,0,25.64-.16,8.07-5.58,13.15-13.74,13.39-7.08,.21-14.21,.02-21.21,.9-12.72,1.59-22.84,8.22-31.26,17.7-11.46,12.89-13.95,28.29-12,44.61,.98,8.21,8.65,15.72,19.78,15.74,14.82,.03,29.64,.04,44.46,0,8.59-.02,16.56,1.93,23.59,7.06,10.04,7.33,16.35,17.14,16.54,29.59,.43,28.09,.36,56.19,.06,84.29-.2,18.04-16.34,34.72-34.26,36.26-2.8,.24-5.63,.37-8.44,.37-24.64,.03-49.28,.01-73.91,.02-7.67,0-14.97-1.3-21.61-5.46-12.85-8.04-19.24-19.64-19.27-34.75-.04-23.82-.01-47.65-.01-71.47Z"/>
    </g>
  </g>
</svg>